#!OML:ASF H:\ManfredETheater\Project 1\Capture day 1\Session 1\subject.ASF
:FULLY-SPECIFIED
:DEGREES
153
root -27.0544 15.4353 27.7738 -13.0509 -46.666 1.76656
lowerback 17.8058 -3.28944 0.501787
upperback 2.74001 -4.12139 2.93455
thorax -6.81921 -2.02994 3.82368
lowerneck -17.0068 1.22312 -2.66412
upperneck 20.7947 3.21765 -3.76107
head 9.41043 0.808693 -0.445813
rclavicle 5.07895e-014 -4.45278e-014
rhumerus -61.1858 3.84524 -85.6199
rradius 103.597
rwrist -7.30188
rhand -29.781 13.7819
rfingers 7.12502
rthumb -3.10594 -16.1752
lclavicle 5.07895e-014 -4.45278e-014
lhumerus -48.4933 -12.9531 98.675
lradius 114.81
lwrist 9.95872
lhand -19.9876 -10.3302
lfingers 7.12502
lthumb 6.35182 19.5546
rfemur -38.7177 -4.29571 18.4884
rtibia 37.1397
rfoot 12.6972 -1.63504
rtoes -33.5607
lfemur -29.8468 2.53734 -22.3765
ltibia 89.9563
lfoot -3.34319 -16.047
ltoes -3.93199
154
root -27.3803 15.3816 28.1127 -13.1127 -46.3035 1.3112
lowerback 17.7684 -3.42457 0.525132
upperback 2.69377 -4.28908 3.02138
thorax -6.83405 -2.11096 3.94181
lowerneck -16.8186 1.20637 -2.66599
upperneck 21.032 3.15938 -3.61962
head 9.45476 0.791656 -0.405942
rclavicle 1.13307e-014 -2.38542e-014
rhumerus -61.6526 4.41468 -85.9546
rradius 104.427
rwrist -6.90547
rhand -29.7946 13.8102
rfingers 7.12502
rthumb -3.11907 -16.1468
lclavicle 1.13307e-014 -2.38542e-014
lhumerus -48.3785 -13.552 98.9558
lradius 115.426
lwrist 9.39934
lhand -19.8955 -10.7062
lfingers 7.12502
lthumb 6.44071 19.1759
rfemur -38.0395 -4.37166 18.754
rtibia 37.3381
rfoot 12.874 -0.838925
rtoes -31.0829
lfemur -29.9004 2.5891 -21.5994
ltibia 91.1683
lfoot -4.01754 -15.4988
ltoes -3.41675
155
root -27.7018 15.3185 28.4424 -13.3852 -45.9333 1.02068
lowerback 17.8764 -3.47949 0.394044
upperback 2.66897 -4.3815 3.05048
thorax -6.9017 -2.15109 4.07815
lowerneck -16.6545 1.13092 -2.66032
upperneck 21.233 3.00799 -3.43968
head 9.48957 0.737721 -0.365714
rclavicle 2.65378e-014 -3.18055e-015
rhumerus -62.0257 4.82512 -86.3083
rradius 105.171
rwrist -6.56145
rhand -29.8767 13.8048
rfingers 7.12502
rthumb -3.19835 -16.151
lclavicle 2.65378e-014 -3.18055e-015
lhumerus -48.218 -14.2163 99.232
lradius 115.928
lwrist 8.7019
lhand -19.7648 -11.1035
lfingers 7.12502
lthumb 6.56687 18.7747
rfemur -37.5171 -4.3297 18.8921
rtibia 38.6234
rfoot 12.293 -0.0965126
rtoes -27.7056
lfemur -30.1033 2.65401 -20.923
ltibia 92.2515
lfoot -5.00328 -14.4788
ltoes -2.77733
156
root -28.0106 15.2764 28.7564 -13.7925 -45.5888 0.807396
lowerback 18.1457 -3.46181 0.165318
upperback 2.66545 -4.39686 3.04992
thorax -7.03319 -2.1502 4.23212
lowerneck -16.5029 1.01181 -2.64723
upperneck 21.3788 2.79147 -3.25643
head 9.50738 0.656439 -0.333618
rclavicle -3.67752e-015 -4.77083e-015
rhumerus -62.2879 5.12599 -86.6764
rradius 105.82
rwrist -6.26561
rhand -30.0112 13.7829
rfingers 7.12502
rthumb -3.32832 -16.1708
lclavicle -3.67752e-015 -4.77083e-015
lhumerus -47.9988 -14.8669 99.5164
lradius 116.295
lwrist 7.90606
lhand -19.5949 -11.5188
lfingers 7.12502
lthumb 6.7309 18.3542
rfemur -37.0479 -4.10848 18.9556
rtibia 40.7591
rfoot 11.0085 0.365903
rtoes -23.9917
lfemur -30.3766 2.7647 -20.29
ltibia 93.0107
lfoot -6.1292 -13.1317
ltoes -2.08746
157
root -28.318 15.1985 29.0651 -14.1686 -45.3387 0.448114
lowerback 18.5733 -3.38812 0.0171876
upperback 2.69454 -4.32132 3.06786
thorax -7.22559 -2.10594 4.35055
lowerneck -16.3427 0.858628 -2.6486
upperneck 21.4471 2.52693 -3.06698
head 9.49637 0.554994 -0.302794
rclavicle 1.2424e-015 -6.20208e-014
rhumerus -62.3899 5.32465 -87.0542
rradius 106.328
rwrist -5.98749
rhand -30.1693 13.7608
rfingers 7.12502
rthumb -3.48099 -16.1906
lclavicle 1.2424e-015 -6.20208e-014
lhumerus -47.7108 -15.4316 99.8238
lradius 116.513
lwrist 7.04061
lhand -19.3931 -11.9325
lfingers 7.12502
lthumb 6.92572 17.9342
rfemur -36.7942 -3.68277 19.1298
rtibia 43.6454
rfoot 9.21105 0.282153
rtoes -20.3872
lfemur -30.9487 2.95415 -19.4981
ltibia 93.7484
lfoot -7.33269 -11.7231
ltoes -0.880704
158
root -28.6165 15.1159 29.3647 -14.4229 -45.159 -0.119393
lowerback 19.1029 -3.28382 0.02088
upperback 2.75357 -4.17313 3.11862
thorax -7.45408 -2.02974 4.40704
lowerneck -16.1851 0.674091 -2.67024
upperneck 21.4409 2.22153 -2.87382
head 9.46005 0.435472 -0.272056
rclavicle -1.44467e-013 3.65764e-014
rhumerus -62.296 5.43358 -87.4276
rradius 106.661
rwrist -5.71407
rhand -30.3197 13.7606
rfingers 7.12502
rthumb -3.62623 -16.1883
lclavicle -1.44467e-013 3.65764e-014
lhumerus -47.3494 -15.8647 100.172
lradius 116.557
lwrist 6.11592
lhand -19.1971 -12.3167
lfingers 7.12502
lthumb 7.11492 17.5437
rfemur -36.6229 -3.13544 19.4597
rtibia 46.9428
rfoot 7.09316 -0.324447
rtoes -17.7284
lfemur -31.7054 3.17996 -18.5479
ltibia 94.2505
lfoot -8.56924 -10.3577
ltoes 0.17534
159
root -28.9069 15.0305 29.6558 -14.4547 -45.0293 -0.946317
lowerback 19.6614 -3.16996 0.199508
upperback 2.8341 -3.97179 3.22538
thorax -7.68571 -1.93273 4.41136
lowerneck -16.0441 0.467107 -2.71928
upperneck 21.3716 1.8911 -2.67714
head 9.40532 0.303932 -0.238147
rclavicle -4.43476e-014 1.11319e-014
rhumerus -61.9819 5.49707 -87.7857
rradius 106.79
rwrist -5.45725
rhand -30.4849 13.7736
rfingers 7.12502
rthumb -3.78569 -16.1726
lclavicle -4.43476e-014 1.11319e-014
lhumerus -46.9202 -16.1246 100.572
lradius 116.41
lwrist 5.1516
lhand -19.059 -12.6297
lfingers 7.12502
lthumb 7.2482 17.2262
rfemur -36.5524 -2.52924 19.9971
rtibia 50.4718
rfoot 4.82616 -1.39221
rtoes -16.4429
lfemur -32.716 3.38628 -17.4187
ltibia 94.5164
lfoot -9.79222 -9.14187
ltoes 0.910122
160
root -29.1893 14.9468 29.9406 -14.2355 -44.8882 -2.0275
lowerback 20.2039 -3.07711 0.549936
upperback 2.92421 -3.75479 3.39404
thorax -7.90463 -1.83357 4.37753
lowerneck -15.9376 0.24625 -2.79744
upperneck 21.2759 1.55 -2.47692
head 9.34874 0.165601 -0.199022
rclavicle -3.68489e-014 -2.22639e-014
rhumerus -61.4301 5.55197 -88.1133
rradius 106.67
rwrist -5.26852
rhand -30.6538 13.7721
rfingers 7.12502
rthumb -3.94882 -16.1711
lclavicle -3.68489e-014 -2.22639e-014
lhumerus -46.4373 -16.1711 101.029
lradius 116.042
lwrist 4.18637
lhand -19.0325 -12.8351
lfingers 7.12502
lthumb 7.27379 17.0198
rfemur -36.4801 -1.98225 20.7204
rtibia 53.9231
rfoot 2.56313 -2.7768
rtoes -16.3471
lfemur -33.9803 3.49888 -16.1615
ltibia 94.4589
lfoot -10.9202 -8.11987
ltoes 1.39486
